# xmcd
#
# Track frame offsets:
#	150
#	16702
#	32852
#	51013
#	69042
#	85893
#	100108
#	117405
#	133478
#	150234
#	168963
#	179381
#	197351
#
# Disc length: 2848 seconds
#
# Revision: 1
# Processed by: cddbd v1.5.2PL0 Copyright (c) Steve Scherf et al.
# Submitted via: audiograbber 1.83.01
#
DISCID=9a0b1e0d
DTITLE=The Sunny Cowgirls - Long Five Days
DYEAR=2006
DGENRE=Country
TTITLE0=Cuttin' Up B and S Style
TTITLE1=Six Pack Short
TTITLE2=Back Into Gear
TTITLE3=Drinking Down Our Pay
TTITLE4=Still Circling
TTITLE5=Gunshot
TTITLE6=Stay
TTITLE7=Gone
TTITLE8=The City Thing
TTITLE9=Dry Land Crop
TTITLE10=Coober Pedy
TTITLE11=Dangerous Tonight
TTITLE12=Pick Me Up
EXTD=YEAR: 2006
EXTT0=
EXTT1=
EXTT2=
EXTT3=
EXTT4=
EXTT5=
EXTT6=
EXTT7=
EXTT8=
EXTT9=
EXTT10=
EXTT11=
EXTT12=
PLAYORDER=
